<svg width="61" height="22" viewBox="0 0 61 22" fill="none" xmlns="http://www.w3.org/2000/svg">
<path d="M5 11C5 7.96243 7.46243 5.5 10.5 5.5C13.5376 5.5 16 7.96243 16 11C16 14.0376 13.5376 16.5 10.5 16.5C7.46243 16.5 5 14.0376 5 11Z" stroke="#FFBC04" stroke-width="10"/>
<path d="M25 2.94038V1.52601C25 0.97373 25.4477 0.526015 26 0.526015H37C37.0182 0.526015 37.035 0.525588 37.0533 0.524677C37.3446 0.510109 39.9952 0.390227 39.9952 0.85119C39.9952 1.33896 40.0061 2.6918 39.9952 3.94038V5.07851V20.5C39.9952 21.0523 39.5474 21.5 38.9952 21.5H38.0274C37.4751 21.5 37.0274 21.0523 37.0274 20.5V5.07851C37.1239 4.28902 36.8557 4.03701 35.7778 3.94038H26C25.4477 3.94038 25 3.49267 25 2.94038Z" fill="#FFBC04" stroke="#FFBC04"/>
<path d="M44 3.54V2.5C44 1.94772 44.4477 1.5 45 1.5H60C60.5523 1.5 61 1.94772 61 2.5V19.5C61 20.0523 60.5523 20.5 60 20.5H45C44.4477 20.5 44 20.0523 44 19.5V19.068C44 18.5157 44.4477 18.068 45 18.068H57.6606C58.2128 18.068 58.6606 17.6203 58.6606 17.068V13.444C58.6606 12.8917 58.2128 12.444 57.6606 12.444H45C44.4477 12.444 44 11.9963 44 11.444V10.86C44 10.3077 44.4477 9.86 45 9.86H57.6606C58.2128 9.86 58.6606 9.41228 58.6606 8.86V5.54C58.6606 4.98771 58.2128 4.54 57.6606 4.54H45C44.4477 4.54 44 4.09229 44 3.54Z" fill="#FFBC04"/>
</svg>
